# AST/ASF file generated using VICON BodyLanguage
# -----------------------------------------------
:version 1.10
:name VICON
:units
  mass 1.0
  length 0.45
  angle deg
:documentation
   .ast/.asf automatically generated from VICON data using
   VICON BodyBuilder and BodyLanguage model FoxedUp or BRILLIANT.MOD
:root
   order TX TY TZ RX RY RZ
   axis XYZ
   position 0 0 0  
   orientation 0 0 0 
:bonedata
  begin
     id 1 
     name lhipjoint
     direction 0.62366 -0.717238 0.310833 
     length 2.53602 
     axis 0 0 0  XYZ
  end
  begin
     id 2 
     name lfemur
     direction 0.34202 -0.939693 0  
     length 7.40817  
     axis 0 0 20  XYZ
    dof rx ry rz
    limits (-160.0 20.0)
           (-70.0 70.0)
           (-60.0 70.0)
  end
  begin
     id 3 
     name ltibia
     direction 0.34202 -0.939693 0   
     length 7.7045   
     axis 0 0 20   XYZ
    dof rx
    limits (-10.0 170.0)
  end
  begin
     id 4 
     name lfoot
     direction 0.0673888 -0.185149 0.980397   
     length 2.09456   
     axis -90 7.62852e-016 20   XYZ
    dof rx rz
    limits (-45.0 90.0)
           (-70.0 20.0)
  end
  begin
     id 5 
     name ltoes
     direction 1.53575e-011 -4.21994e-011 1   
     length 1.05543   
     axis -90 7.62852e-016 20   XYZ
    dof rx
    limits (-90.0 20.0)
  end
  begin
     id 6 
     name rhipjoint
     direction -0.489018 -0.800347 0.346851   
     length 2.27268  
     axis 0 0 0  XYZ 
  end
  begin
     id 7 
     name rfemur
     direction -0.34202 -0.939693 0   
     length 7.55487   
     axis 0 0 -20   XYZ
    dof rx ry rz
    limits (-160.0 20.0)
           (-70.0 70.0)
           (-70.0 60.0)
  end
  begin
     id 8 
     name rtibia
     direction -0.34202 -0.939693 0   
     length 7.78969   
     axis 0 0 -20   XYZ
    dof rx
    limits (-10.0 170.0)
 end
 begin
     id 9 
     name rfoot
     direction -0.0859318 -0.236096 0.967923   
     length 2.19143  
     axis -90 -7.62852e-016 -20   XYZ
    dof rx rz
    limits (-45.0 90.0)
           (-20.0 70.0)
  end
  begin
     id 10 
     name rtoes
     direction -1.53538e-011 -4.21989e-011 1   
     length 1.09845   
     axis -90 -7.62852e-016 -20   XYZ
    dof rx
    limits (-90.0 20.0)
  end
  begin
     id 11 
     name lowerback
     direction -0.00762546 0.998978 -0.0445553   
     length 1.98161   
     axis 0 0 0   XYZ
    dof rx ry rz
    limits (-20.0 45.0)
           (-30.0 30.0)
           (-30.0 30.0)
  end
  begin
     id 12 
     name upperback
     direction 0.0422361 0.998867 -0.0219156   
     length 1.97558   
     axis 0 0 0   XYZ
    dof rx ry rz
    limits (-20.0 45.0)
           (-30.0 30.0)
           (-30.0 30.0)
  end
  begin
     id 13 
     name thorax
     direction 0.0442465 0.999021 7.47603e-005   
     length 1.97799   
     axis 0 0 0   XYZ
    dof rx ry rz
    limits (-20.0 45.0)
           (-30.0 30.0)
           (-30.0 30.0)
  end
  begin
     id 14 
     name lowerneck
     direction 0.00312169 0.984641 0.174564   
     length 1.78995   
     axis 0 0 0   XYZ
    dof rx ry rz
    limits (-20.0 45.0)
           (-30.0 30.0)
           (-30.0 30.0)
  end
  begin
     id 15 
     name upperneck
     direction -0.0383028 0.985255 -0.166749   
     length 1.83053   
     axis 0 0 0   XYZ
    dof rx ry rz
    limits (-20.0 45.0)
           (-30.0 30.0)
           (-30.0 30.0)
  end
  begin
     id 16
     name head
     direction -0.0129546 0.997059 -0.0755386  
     length 1.84088  
     axis 0 0 0   XYZ
    dof rx ry rz
    limits (-20.0 45.0)
           (-30.0 30.0)
           (-30.0 30.0)
  end
  begin
     id 17 
     name lclavicle
     direction 0.912857 0.370519 -0.171488  
     length 3.51279  
     axis 0 0 0   XYZ
    dof ry rz
    limits (-20.0 10.0)
           (0.0 20.0)
  end
  begin
     id 18 
     name lhumerus
     direction 1 -4.48962e-011 3.64361e-027   
     length 4.95663   
     axis 180 -30 -90   XYZ
    dof rx ry rz
    limits (-60.0 90.0)
           (-90.0 90.0)
           (-90.0 90.0)
  end
  begin
     id 19
     name lradius
     direction 1 -4.48974e-011 5.97202e-027   
     length 3.38177   
     axis 180 -30 -90   XYZ
    dof rx
    limits (-10.0 170.0)
  end
  begin
     id 20
     name lwrist
     direction 1 -4.4896e-011 9.83288e-027   
     length 1.69088   
     axis -9.31221e-015 90 90   XYZ
    dof ry
    limits (-180.0 0.0)
 end
  begin
     id 21 
     name lhand
     direction 1 -4.4902e-011 1.96551e-026   
     length 0.662909   
     axis -1.25475e-014 90 90   XYZ
    dof rx rz
    limits (-90.0 90.0)
           (-45.0 45.0)
  end
  begin
     id 22 
     name lfingers
     direction 1 -4.48971e-011 3.93277e-026   
     length 0.534454   
     axis -2.50945e-014 90 90   XYZ
    dof rx
    limits (0.0 90.0)
  end
  begin
     id 23
     name lthumb
     direction 0.707107 -6.34933e-011 0.707107   
     length 0.767373   
     axis -90 45 -4.80359e-014   XYZ
    dof rx rz
    limits (-45.0 45.0)
           (-45.0 45.0)
  end
  begin
     id 24 
     name rclavicle
     direction -0.900919 0.395364 -0.178976   
     length 3.40627  
     axis 0 0 0   XYZ 
    dof ry rz
    limits (-10.0 20.0)
           (-20.0 0.0)
  end
  begin
     id 25 
     name rhumerus
     direction -1 -4.48969e-011 1.03875e-027  
     length 5.08365   
     axis 180 30 90   XYZ
    dof rx ry rz
    limits (-90.0 60.0)
           (-90.0 90.0)
           (-90.0 90.0)
  end
  begin
     id 26 
     name rradius
     direction -1 -4.48951e-011 5.02733e-027   
     length 3.35984   
     axis 180 30 90   XYZ
    dof rx
    limits (-10.0 170.0)
  end
  begin
     id 27 
     name rwrist
     direction -1 -4.49011e-011 9.82828e-027   
     length 1.67992   
     axis -9.31221e-015 -90 -90   XYZ
    dof ry
    limits (-180.0 0.0)
  end
  begin
     id 28
     name rhand
     direction -1 -4.48894e-011 1.96774e-026   
     length 0.820764   
     axis -1.25475e-014 -90 -90   XYZ
    dof rx rz
    limits (-90.0 90.0)
           (-45.0 45.0)
  end
  begin
     id 29
     name rfingers
     direction -1 -4.49095e-011 3.92833e-026   
     length 0.661721   
     axis -2.50945e-014 -90 -90   XYZ
    dof rx
    limits (0.0 90.0)
  end
  begin
     id 30
     name rthumb
     direction -0.707107 -6.34881e-011 0.707107   
     length 0.950103   
     axis -90 -45 4.80359e-014   XYZ
    dof rx rz
    limits (-45.0 45.0)
           (-45.0 45.0)
  end
:hierarchy
  begin
    root lhipjoint rhipjoint lowerback
    lhipjoint lfemur
    lfemur ltibia
    ltibia lfoot
    lfoot ltoes
    rhipjoint rfemur
    rfemur rtibia
    rtibia rfoot
    rfoot rtoes
    lowerback upperback
    upperback thorax
    thorax lowerneck lclavicle rclavicle
    lowerneck upperneck
    upperneck head
    lclavicle lhumerus
    lhumerus lradius
    lradius lwrist
    lwrist lhand lthumb
    lhand lfingers
    rclavicle rhumerus
    rhumerus rradius
    rradius rwrist
    rwrist rhand rthumb
    rhand rfingers
  end

#!OML:ASF I:\golf\golf\golf 2\Subject 1\2002-09-07\Subject1.ASF
:FULLY-SPECIFIED
:DEGREES
33
root 0.903825 17.8106 -7.96212 8.92065 -4.71355 -7.81865
lowerback -4.75255 1.06768 1.29442
upperback 0.668268 1.17548 5.19001
thorax 3.2778 0.559889 4.74506
lowerneck -18.2838 0.355024 0.76782
upperneck 40.6238 3.05254 -6.45717
head 18.5712 0.40297 -2.58772
rclavicle -1.2424e-014 -7.23576e-014
rhumerus -25.2131 0.889478 -84.5014
rradius 26.049
rwrist -8.51806
rhand -21.153 12.2337
rfingers 7.12502
rthumb 5.22662 -17.6818
lclavicle -1.2424e-014 -7.23576e-014
lhumerus -24.6356 -5.97669 92.2213
lradius 26.1959
lwrist 1.52845
lhand -12.004 30.65
lfingers 7.12502
lthumb 14.0532 60.1548
rfemur -16.863 1.89054 25.6696
rtibia 31.1816
rfoot -17.5173 -6.38401
rtoes -2.43914
lfemur -22.8687 2.58313 -12.0112
ltibia 38.9113
lfoot -19.5962 5.58275
ltoes -7.25967
34
root 0.899877 17.8101 -7.96054 8.90755 -4.66284 -7.79855
lowerback -4.5148 1.0701 1.41812
upperback 0.555459 1.19189 5.07261
thorax 3.03038 0.57415 4.54268
lowerneck -18.1217 0.393099 0.935069
upperneck 40.7181 3.04372 -6.44461
head 18.5842 0.429611 -2.61723
rclavicle 1.04362e-014 5.1684e-014
rhumerus -25.4004 0.55252 -84.5855
rradius 25.9415
rwrist -8.49138
rhand -21.096 12.4915
rfingers 7.12502
rthumb 5.28164 -17.4227
lclavicle 1.04362e-014 5.1684e-014
lhumerus -24.9344 -6.04702 92.1044
lradius 26.1432
lwrist 1.52355
lhand -12.1439 30.4142
lfingers 7.12502
lthumb 13.9183 59.9284
rfemur -16.8435 1.88222 25.6703
rtibia 31.1984
rfoot -17.5391 -6.48593
rtoes -2.89409
lfemur -22.8521 2.61482 -12.0156
ltibia 38.8936
lfoot -19.6287 5.48109
ltoes -7.16857
35
root 0.896773 17.8115 -7.95895 8.87053 -4.59661 -7.66755
lowerback -4.512 1.05659 1.29641
upperback 0.642863 1.17708 5.05408
thorax 3.11822 0.563597 4.59321
lowerneck -18.2413 0.411027 0.792044
upperneck 40.8489 3.1029 -6.35531
head 18.6966 0.441118 -2.54438
rclavicle -1.98785e-015 -1.51076e-014
rhumerus -25.2257 0.413545 -84.4748
rradius 25.8053
rwrist -8.53118
rhand -21.1391 12.6101
rfingers 7.12502
rthumb 5.24008 -17.3051
lclavicle -1.98785e-015 -1.51076e-014
lhumerus -24.8774 -6.08751 92.1562
lradius 26.0397
lwrist 1.64652
lhand -12.1961 30.3598
lfingers 7.12502
lthumb 13.868 59.8774
rfemur -16.7867 1.83432 25.5462
rtibia 31.17
rfoot -17.515 -6.58642
rtoes -3.10852
lfemur -22.8166 2.57694 -12.1437
ltibia 38.8643
lfoot -19.6626 5.40275
ltoes -7.18527
36
root 0.893826 17.8153 -7.95831 8.87068 -4.55682 -7.65017
lowerback -4.51402 1.05211 1.27446
upperback 0.744278 1.16594 5.09154
thorax 3.22414 0.555673 4.64686
lowerneck -18.3504 0.429328 0.725847
upperneck 40.8706 3.18717 -6.40921
head 18.7479 0.455176 -2.54351
rclavicle 1.71949e-014 1.59028e-015
rhumerus -25.0127 0.573766 -84.3922
rradius 25.7409
rwrist -8.77128
rhand -21.4078 12.4469
rfingers 7.12502
rthumb 4.98058 -17.4745
lclavicle 1.71949e-014 1.59028e-015
lhumerus -24.7018 -6.08786 92.2375
lradius 25.8515
lwrist 1.87278
lhand -12.2263 30.487
lfingers 7.12502
lthumb 13.8389 60.0066
rfemur -16.7617 1.82562 25.5425
rtibia 31.1335
rfoot -17.4868 -6.58954
rtoes -2.8807
lfemur -22.8264 2.57807 -12.1495
ltibia 38.854
lfoot -19.6987 5.34111
ltoes -7.21473
37
root 0.89088 17.8238 -7.95668 8.95789 -4.5304 -7.63503
lowerback -4.60011 1.01541 1.20727
upperback 0.778557 1.11291 5.16136
thorax 3.30956 0.526207 4.75813
lowerneck -18.2799 0.44834 0.708569
upperneck 40.8065 3.26725 -6.52232
head 18.6995 0.469597 -2.57443
rclavicle 3.26007e-014 5.80451e-014
rhumerus -24.9532 0.922468 -84.3436
rradius 25.7739
rwrist -8.99395
rhand -21.5976 12.2976
rfingers 7.12502
rthumb 4.79736 -17.6281
lclavicle 3.26007e-014 5.80451e-014
lhumerus -24.6057 -5.93875 92.3217
lradius 25.6209
lwrist 1.90786
lhand -12.2905 30.4091
lfingers 7.12502
lthumb 13.777 59.9329
rfemur -16.8213 1.87101 25.5323
rtibia 31.0823
rfoot -17.4731 -6.59268
rtoes -2.53214
lfemur -22.9218 2.61472 -12.1593
ltibia 38.8422
lfoot -19.7068 5.29721
ltoes -7.11738
38
root 0.889574 17.8239 -7.95663 9.02979 -4.46225 -7.63701
lowerback -4.64072 0.962149 1.17232
upperback 0.762115 1.04086 5.2182
thorax 3.31919 0.488987 4.83349
lowerneck -18.0436 0.459581 0.68145
upperneck 40.7484 3.31607 -6.59167
head 18.6047 0.478583 -2.58713
rclavicle -4.87022e-015 -4.69132e-014
rhumerus -24.9866 1.0354 -84.2709
rradius 25.761
rwrist -8.95365
rhand -21.504 12.3263
rfingers 7.12502
rthumb 4.88771 -17.5973
lclavicle -4.87022e-015 -4.69132e-014
lhumerus -24.6782 -5.66594 92.339
lradius 25.4293
lwrist 1.67881
lhand -12.3426 29.9706
lfingers 7.12502
lthumb 13.7268 59.4979
rfemur -16.8792 1.9018 25.5407
rtibia 31.0537
rfoot -17.4856 -6.70198
rtoes -2.5784
lfemur -23.0241 2.61362 -12.1452
ltibia 38.8435
lfoot -19.6717 5.23451
ltoes -7.05385
39
root 0.88923 17.8242 -7.95645 9.02959 -4.42188 -7.67784
lowerback -4.5866 0.927948 1.17755
upperback 0.750059 0.995902 5.27453
thorax 3.27879 0.46649 4.88495
lowerneck -17.8725 0.489113 0.566577
upperneck 40.8585 3.39676 -6.55653
head 18.6277 0.49904 -2.53701
rclavicle -1.83876e-014 -2.62396e-014
rhumerus -25.0101 1.0347 -84.1815
rradius 25.6872
rwrist -8.93036
rhand -21.3367 12.3998
rfingers 7.12502
rthumb 5.04922 -17.5201
lclavicle -1.83876e-014 -2.62396e-014
lhumerus -24.8685 -5.29151 92.3236
lradius 25.3576
lwrist 1.43254
lhand -12.4803 29.6555
lfingers 7.12502
lthumb 13.5941 59.1917
rfemur -16.8649 1.8931 25.5934
rtibia 31.0436
rfoot -17.5375 -6.71591
rtoes -2.41313
lfemur -23.0265 2.59861 -12.094
ltibia 38.8286
lfoot -19.6137 5.22229
ltoes -7.38249
40
root 0.88921 17.8237 -7.95545 9.04075 -4.44743 -7.58776
lowerback -4.55827 0.911936 1.04896
upperback 0.730126 0.983785 5.28883
thorax 3.24066 0.45844 4.97111
lowerneck -17.7591 0.510783 0.424698
upperneck 41.0173 3.4563 -6.46678
head 18.6922 0.513106 -2.4631
rclavicle 1.49089e-015 -1.74931e-014
rhumerus -25.0892 1.10659 -84.1096
rradius 25.6898
rwrist -8.9139
rhand -21.1964 12.4291
rfingers 7.12502
rthumb 5.18475 -17.4874
lclavicle 1.49089e-015 -1.74931e-014
lhumerus -25.0747 -5.04981 92.3474
lradius 25.3863
lwrist 1.26339
lhand -12.4625 29.9054
lfingers 7.12502
lthumb 13.6113 59.4404
rfemur -16.8959 1.88094 25.4844
rtibia 31.0721
rfoot -17.6264 -6.57535
rtoes -1.53121
lfemur -23.0143 2.53293 -12.1939
ltibia 38.8124
lfoot -19.5843 5.31416
ltoes -7.62743
41
root 0.889722 17.8232 -7.95379 9.06246 -4.45352 -7.54364
lowerback -4.54857 0.91589 1.01234
upperback 0.729263 0.991821 5.28445
thorax 3.23311 0.461919 4.98762
lowerneck -17.661 0.518311 0.444842
upperneck 41.0637 3.47073 -6.48881
head 18.6957 0.520371 -2.47598
rclavicle -1.11319e-014 -5.08889e-014
rhumerus -25.1604 1.09145 -84.0508
rradius 25.7141
rwrist -8.76162
rhand -21.1511 12.4831
rfingers 7.12502
rthumb 5.22848 -17.4324
lclavicle -1.11319e-014 -5.08889e-014
lhumerus -25.2091 -5.05244 92.3941
lradius 25.4297
lwrist 1.23474
lhand -12.2729 30.3145
lfingers 7.12502
lthumb 13.794 59.8372
rfemur -16.931 1.85801 25.4263
rtibia 31.1016
rfoot -17.6629 -6.51249
rtoes -1.081
lfemur -23.0132 2.47922 -12.2376
ltibia 38.7838
lfoot -19.6355 5.30818
ltoes -7.34496
42
root 0.889819 17.8225 -7.95217 9.07307 -4.44846 -7.56783
lowerback -4.53378 0.917165 1.0299
upperback 0.758191 0.990991 5.30451
thorax 3.25485 0.461146 4.99906
lowerneck -17.5624 0.536623 0.497213
upperneck 41.071 3.50376 -6.54978
head 18.6785 0.535075 -2.50771
rclavicle -2.51463e-014 3.81667e-014
rhumerus -25.1607 1.09776 -84.0072
rradius 25.6918
rwrist -8.66286
rhand -21.2234 12.5207
rfingers 7.12502
rthumb 5.15865 -17.3965
lclavicle -2.51463e-014 3.81667e-014
lhumerus -25.2917 -5.0839 92.4458
lradius 25.3801
lwrist 1.33949
lhand -12.3812 30.0649
lfingers 7.12502
lthumb 13.6896 59.5947
rfemur -16.9682 1.81872 25.462
rtibia 31.1655
rfoot -17.6315 -6.58946
rtoes -1.60031
lfemur -23.0373 2.40826 -12.2043
ltibia 38.775
lfoot -19.6786 5.32293
ltoes -7.02127
43
root 0.890161 17.8213 -7.95058 9.0896 -4.48034 -7.49113
lowerback -4.54919 0.914371 0.931219
upperback 0.79129 0.990568 5.30724
thorax 3.2962 0.458333 5.05931
lowerneck -17.4047 0.528205 0.445285
upperneck 41.0766 3.51754 -6.5738
head 18.6396 0.531369 -2.50573
rclavicle 8.34896e-015 -4.92986e-014
rhumerus -25.1419 1.15284 -83.9637
rradius 25.6833
rwrist -8.64825
rhand -21.3359 12.4151
rfingers 7.12502
rthumb 5.05005 -17.5047
lclavicle 8.34896e-015 -4.92986e-014
lhumerus -25.3253 -5.06681 92.5004
lradius 25.2349
lwrist 1.38493
lhand -12.5061 29.7533
lfingers 7.12502
lthumb 13.5693 59.2911
rfemur -17.0199 1.7935 25.3774
rtibia 31.2193
rfoot -17.5875 -6.62327
rtoes -1.97698
lfemur -23.0579 2.35177 -12.2975
ltibia 38.7768
lfoot -19.634 5.46536
ltoes -7.18318
